<svg width="191" height="197" viewBox="0 0 191 197" fill="none" xmlns="http://www.w3.org/2000/svg">
<path d="M173.583 124.681H133.292C132.615 124.681 132.068 125.099 132.068 125.92V136.83C132.068 137.507 132.486 138.054 133.307 138.054H173.59C174.281 138.054 174.829 137.737 174.829 136.873V125.963C174.829 125.207 174.418 124.768 173.583 124.768V124.667V124.681ZM120.553 0.352858C120.669 0.6049 120.769 0.84254 120.892 1.217V136.527C120.892 136.967 120.748 137.219 120.625 137.348C120.507 137.49 120.358 137.602 120.189 137.677C120.021 137.752 119.837 137.787 119.653 137.78H3.10197C2.82832 137.78 2.56188 137.78 2.40345 137.636C2.27325 137.512 2.1702 137.362 2.10079 137.196C2.03139 137.03 1.99713 136.851 2.00019 136.671V1.08018C2.00019 0.532889 2.28824 0.115219 2.6915 0H119.653C119.941 0 120.345 0.122421 120.481 0.244842V0.360061L120.553 0.352858ZM15.092 123.565C15.092 124.091 15.3656 124.545 15.7833 124.667H106.828C107.246 124.53 107.519 124.12 107.519 123.558V14.316C107.519 13.7903 107.238 13.351 106.813 13.2358H15.7905C15.3872 13.3798 15.0992 13.7615 15.0992 14.316L15.0775 123.558L15.092 123.565ZM52.3509 63.2624C57.0317 63.2624 59.6529 64.5371 62.4038 67.72C62.8214 68.2601 63.5055 68.3969 64.06 67.972L71.5061 61.3469C72.0462 61.0301 71.9237 60.1659 71.6501 59.7339C67.0773 54.2322 60.4594 50.7756 51.9188 50.7756C40.4689 50.7756 31.8275 56.5005 28.479 66.6614C27.2908 70.226 26.7507 74.77 26.7507 80.9126C26.7507 87.0696 27.2908 91.5991 28.587 95.1709C31.9355 105.44 40.577 111.05 52.0269 111.05C60.6683 111.05 67.2574 107.593 71.7941 102.293C72.1182 101.76 72.2262 101.105 71.6861 100.665L64.2185 94.0763C63.6928 93.7379 63.0447 93.7379 62.6054 94.2708C59.7969 97.5113 56.8805 99.2396 52.1349 99.2396C47.0508 99.2396 43.1694 96.7552 41.5491 91.7864C40.5698 88.9779 40.3537 85.5213 40.3537 81.107C40.3537 76.6783 40.6778 73.4161 41.6499 70.514C43.3782 65.7685 47.166 63.2624 52.3509 63.2624Z" fill="#fe904d"/>
<path d="M7.156 163.44L13.168 182.088L19.108 163.44H25.336L16.048 189H10.252L0.892 163.44H7.156ZM47.8298 183.816V189H29.8658V163.44H47.5058V168.624H35.7698V173.592H45.8498V178.38H35.7698V183.816H47.8298ZM53.5766 189V163.44H59.4806V183.816H71.8646V189H53.5766ZM76.7952 189V163.44H82.6992V183.816H95.0832V189H76.7952ZM110.753 189.216C108.857 189.216 107.129 188.856 105.569 188.136C104.033 187.392 102.701 186.408 101.573 185.184C100.445 183.936 99.5807 182.544 98.9807 181.008C98.3807 179.448 98.0807 177.84 98.0807 176.184C98.0807 174.504 98.3927 172.896 99.0167 171.36C99.6647 169.8 100.553 168.42 101.681 167.22C102.833 165.996 104.189 165.036 105.749 164.34C107.309 163.644 109.013 163.296 110.861 163.296C112.757 163.296 114.473 163.668 116.009 164.412C117.569 165.132 118.901 166.116 120.005 167.364C121.133 168.612 121.997 170.016 122.597 171.576C123.197 173.112 123.497 174.684 123.497 176.292C123.497 177.972 123.173 179.592 122.525 181.152C121.901 182.688 121.013 184.068 119.861 185.292C118.733 186.492 117.389 187.452 115.829 188.172C114.293 188.868 112.601 189.216 110.753 189.216ZM104.093 176.256C104.093 177.576 104.345 178.824 104.849 180C105.353 181.152 106.109 182.1 107.117 182.844C108.125 183.588 109.349 183.96 110.789 183.96C112.277 183.96 113.513 183.576 114.497 182.808C115.505 182.04 116.249 181.068 116.729 179.892C117.233 178.692 117.485 177.456 117.485 176.184C117.485 174.864 117.221 173.628 116.693 172.476C116.189 171.3 115.433 170.352 114.425 169.632C113.441 168.912 112.229 168.552 110.789 168.552C109.301 168.552 108.053 168.936 107.045 169.704C106.061 170.448 105.317 171.408 104.813 172.584C104.333 173.76 104.093 174.984 104.093 176.256ZM129.068 189V163.44H140.588C141.788 163.44 142.892 163.692 143.9 164.196C144.932 164.676 145.82 165.336 146.564 166.176C147.308 166.992 147.884 167.916 148.292 168.948C148.724 169.98 148.94 171.024 148.94 172.08C148.94 173.664 148.556 175.128 147.788 176.472C147.044 177.792 146.036 178.8 144.764 179.496L150.38 189H143.864L138.968 180.756H134.972V189H129.068ZM134.972 175.608H140.372C141.068 175.608 141.668 175.284 142.172 174.636C142.676 173.964 142.928 173.112 142.928 172.08C142.928 171.048 142.64 170.22 142.064 169.596C141.488 168.948 140.864 168.624 140.192 168.624H134.972V175.608ZM173.31 183.816V189H155.346V163.44H172.986V168.624H161.25V173.592H171.33V178.38H161.25V183.816H173.31Z" fill="#fe904d"/>
</svg>
